<svg width="24" height="24" viewBox="0 0 24 24" fill="none" xmlns="http://www.w3.org/2000/svg">
<path fill-rule="evenodd" clip-rule="evenodd" d="M7.57821 2.91194C4.8091 3.55436 2.75 6.03342 2.75 9C2.75 9.41421 2.41421 9.75 2 9.75C1.58579 9.75 1.25 9.41421 1.25 9C1.25 4.71579 4.71579 1.25 9 1.25C9.2702 1.25 9.51952 1.39534 9.65265 1.63047C9.78578 1.8656 9.78214 2.15417 9.64312 2.38587L8.59313 4.13587C8.38002 4.49105 7.91933 4.60623 7.56414 4.39312C7.20896 4.18001 7.09378 3.71932 7.30689 3.36413L7.57821 2.91194ZM22 14.25C22.4142 14.25 22.75 14.5858 22.75 15C22.75 19.2842 19.2842 22.75 15 22.75C14.7298 22.75 14.4805 22.6047 14.3474 22.3695C14.2142 22.1344 14.2179 21.8458 14.3569 21.6141L15.4069 19.8641C15.62 19.5089 16.0807 19.3938 16.4359 19.6069C16.791 19.82 16.9062 20.2807 16.6931 20.6359L16.4218 21.0881C19.1909 20.4456 21.25 17.9666 21.25 15C21.25 14.5858 21.5858 14.25 22 14.25Z" fill="white"/>
<path d="M16.3999 8.21002L12.6399 6.18002C12.2399 5.97002 11.7699 5.97002 11.3699 6.18002L7.60989 8.21002C7.33989 8.36002 7.16992 8.65002 7.16992 8.98002C7.16992 9.31002 7.33989 9.60002 7.60989 9.75002L11.3699 11.78C11.5699 11.89 11.7899 11.94 12.0099 11.94C12.2299 11.94 12.4499 11.89 12.6499 11.78L16.4099 9.75002C16.6799 9.60002 16.8499 9.31002 16.8499 8.98002C16.8399 8.65002 16.6699 8.36002 16.3999 8.21002Z" fill="white"/>
<path opacity="0.4" d="M10.7402 12.47L7.24023 10.72C6.97023 10.59 6.66024 10.6 6.40024 10.76C6.14024 10.92 5.99023 11.19 5.99023 11.49V14.8C5.99023 15.37 6.31025 15.89 6.82025 16.14L10.3203 17.89C10.4403 17.95 10.5702 17.98 10.7102 17.98C10.8702 17.98 11.0202 17.94 11.1602 17.85C11.4202 17.69 11.5703 17.42 11.5703 17.12V13.81C11.5703 13.24 11.2602 12.73 10.7402 12.47Z" fill="white"/>
<path opacity="0.4" d="M17.5899 10.7601C17.3299 10.6001 17.0199 10.5901 16.7499 10.7201L13.2499 12.4701C12.7399 12.7301 12.4199 13.2401 12.4199 13.8101V17.1201C12.4199 17.4201 12.5699 17.6901 12.8299 17.8501C12.9699 17.9401 13.1199 17.9801 13.2799 17.9801C13.4099 17.9801 13.5399 17.9501 13.6699 17.8901L17.1699 16.1401C17.6799 15.8801 17.9999 15.3701 17.9999 14.8001V11.4901C17.9999 11.1901 17.8499 10.9201 17.5899 10.7601Z" fill="white"/>
</svg>
