<svg width="320" height="280" viewBox="0 0 320 280" fill="none" xmlns="http://www.w3.org/2000/svg">
<path d="M187.46 66.2437L187.419 66.2839L187.389 66.3321C187.39 66.3307 187.387 66.3347 187.379 66.3467C187.371 66.3577 187.361 66.3723 187.347 66.391C187.32 66.4285 187.282 66.4781 187.235 66.5405C187.139 66.665 187.007 66.8349 186.838 67.0495C186.501 67.4785 186.022 68.0812 185.409 68.8467C184.184 70.3773 182.429 72.5553 180.22 75.2884C175.801 80.7543 169.566 88.4384 162.12 97.6C147.227 115.923 127.488 140.155 107.739 164.369C87.991 188.583 68.2336 212.778 53.3042 231.029C45.8394 240.155 39.5818 247.794 35.1359 253.205C32.9129 255.911 31.1431 258.06 29.902 259.559C29.2814 260.309 28.7934 260.896 28.4473 261.308C28.2742 261.514 28.1373 261.676 28.0375 261.792C27.9874 261.851 27.9476 261.897 27.9177 261.93C27.9027 261.947 27.8909 261.96 27.8821 261.97C27.8755 261.977 27.8719 261.981 27.8707 261.982C27.8701 261.983 27.87 261.983 27.8704 261.983L27.833 262.02L27.8042 262.064C20.906 272.638 8.83125 279.5 -4.68509 279.5C-26.2533 279.5 -43.5 262.348 -43.5 240.91C-43.5 230.333 -39.187 220.615 -32.2898 213.757L-32.2494 213.717L-32.2192 213.669C-32.2191 213.669 -32.2163 213.664 -32.209 213.654C-32.2013 213.643 -32.1908 213.628 -32.177 213.61C-32.1495 213.572 -32.1122 213.523 -32.0645 213.46C-31.9694 213.336 -31.8371 213.166 -31.6684 212.951C-31.331 212.522 -30.8516 211.919 -30.239 211.154C-29.0139 209.623 -27.2591 207.445 -25.0498 204.712C-20.6312 199.246 -14.3965 191.562 -6.94994 182.401C7.94307 164.078 27.6822 139.846 47.4306 115.632C67.179 91.4179 86.9364 67.2222 101.866 48.9715C109.331 39.8461 115.588 32.2071 120.034 26.7953C122.257 24.0894 124.027 21.9406 125.268 20.4414C125.889 19.6917 126.377 19.1051 126.723 18.6927C126.896 18.4864 127.033 18.3246 127.133 18.2082C127.183 18.1499 127.222 18.1041 127.252 18.0702C127.267 18.0533 127.279 18.0402 127.288 18.0306C127.297 18.0211 127.3 18.0176 127.3 18.0178L127.337 17.9809L127.366 17.9367C134.264 7.36287 146.339 0.50066 159.855 0.50066C181.423 0.50066 198.67 17.6528 198.67 39.0905C198.67 49.6678 194.357 59.386 187.46 66.2437ZM278.027 157.164L277.987 157.204L277.956 157.252C277.884 157.368 277.501 157.868 276.808 158.749C276.127 159.613 275.171 160.814 273.977 162.303C271.589 165.283 268.255 169.415 264.29 174.315C256.359 184.114 245.903 196.98 235.437 209.829C224.972 222.678 214.497 235.508 206.53 245.235C202.546 250.099 199.19 254.186 196.775 257.111C195.567 258.574 194.595 259.745 193.899 260.578C193.19 261.425 192.787 261.895 192.699 261.983L192.662 262.02L192.633 262.064C185.735 272.638 173.66 279.5 160.144 279.5C138.576 279.5 121.329 262.348 121.329 240.91C121.329 230.333 125.642 220.615 132.539 213.757L132.579 213.717L132.61 213.668C132.683 213.553 133.065 213.052 133.758 212.172C134.439 211.308 135.396 210.107 136.589 208.617C138.977 205.638 142.311 201.506 146.276 196.606C154.207 186.807 164.663 173.94 175.129 161.092C185.594 148.243 196.069 135.412 204.036 125.686C208.02 120.822 211.377 116.735 213.792 113.81C214.999 112.347 215.971 111.175 216.668 110.342C217.376 109.495 217.779 109.026 217.867 108.938L217.904 108.901L217.933 108.857C224.831 98.283 236.906 91.4208 250.422 91.4208C271.991 91.4208 289.237 108.573 289.237 130.011C289.237 140.588 284.924 150.306 278.027 157.164ZM363.5 39.0899C363.5 60.5276 346.253 77.6797 324.685 77.6797C303.117 77.6797 285.87 60.5276 285.87 39.0899C285.87 17.6521 303.117 0.5 324.685 0.5C346.253 0.5 363.5 17.6521 363.5 39.0899ZM34.1298 39.0905C34.1298 60.5283 16.8831 77.6804 -4.6851 77.6804C-26.2509 77.6804 -43.5 60.2411 -43.5 39.0905C-43.5 17.6528 -26.2533 0.50066 -4.6851 0.50066C16.5943 0.50066 34.1298 17.6552 34.1298 39.0905Z" stroke="#F2F2F2"/>
</svg>
