<svg width="104" height="15" viewBox="0 0 104 15" fill="none" xmlns="http://www.w3.org/2000/svg">
<path d="M39.2737 7.3623C40.4121 8.03215 40.9814 9.04325 40.9814 10.3956C40.9814 11.5205 40.5916 12.4431 39.812 13.1635C39.0324 13.8839 38.0734 14.2441 36.9349 14.2441H31.4221V0.973407H36.5451C37.6464 0.973407 38.5807 1.32729 39.3479 2.03506C40.1152 2.74283 40.4988 3.63387 40.4988 4.70816C40.4988 5.80773 40.0904 6.69245 39.2737 7.3623ZM36.5451 3.41901H33.9836V6.33856H36.5451C36.9411 6.33856 37.269 6.19953 37.5289 5.92148C37.8011 5.64343 37.9372 5.29586 37.9372 4.87878C37.9372 4.46171 37.8073 4.11414 37.5474 3.83609C37.2876 3.55803 36.9535 3.41901 36.5451 3.41901ZM33.9836 11.7985H36.9349C37.368 11.7985 37.7269 11.6532 38.0115 11.3625C38.2961 11.0591 38.4384 10.68 38.4384 10.225C38.4384 9.78262 38.2961 9.4161 38.0115 9.12541C37.7269 8.82208 37.368 8.67041 36.9349 8.67041H33.9836V11.7985Z" fill="#252831"/>
<path d="M48.874 9.88373V4.76504H51.2685V14.2441H48.874V13.1824C48.3048 14.0672 47.3829 14.5095 46.1083 14.5095C45.0936 14.5095 44.2522 14.162 43.5839 13.4668C42.9281 12.759 42.6002 11.7985 42.6002 10.5852V4.76504H44.9946V10.2819C44.9946 10.9012 45.1555 11.3814 45.4772 11.7227C45.8113 12.0639 46.263 12.2345 46.8322 12.2345C47.4633 12.2345 47.9583 12.0386 48.3172 11.6468C48.6884 11.2424 48.874 10.6547 48.874 9.88373Z" fill="#252831"/>
<path d="M55.856 14.2441H53.4615V0.404663H55.856V14.2441Z" fill="#252831"/>
<path d="M62.7623 9.4477L66.6046 14.2441H63.8203L60.4421 9.94061V14.2441H58.0476V0.973407H60.4421V8.93583L63.6347 4.76504H66.4932L62.7623 9.4477Z" fill="#252831"/>
<path d="M75.2987 6.24377V0.973407H77.8417V14.2441H75.2987V8.74624H70.4727V14.2441H67.9112V0.973407H70.4727V6.24377H75.2987Z" fill="#252831"/>
<path d="M86.2695 9.88373V4.76504H88.6639V14.2441H86.2695V13.1824C85.7002 14.0672 84.7783 14.5095 83.5038 14.5095C82.4891 14.5095 81.6476 14.162 80.9794 13.4668C80.3235 12.759 79.9956 11.7985 79.9956 10.5852V4.76504H82.3901V10.2819C82.3901 10.9012 82.5509 11.3814 82.8727 11.7227C83.2068 12.0639 83.6585 12.2345 84.2277 12.2345C84.8588 12.2345 85.3538 12.0386 85.7126 11.6468C86.0839 11.2424 86.2695 10.6547 86.2695 9.88373Z" fill="#252831"/>
<path d="M93.2515 14.2441H90.857V0.404663H93.2515V14.2441Z" fill="#252831"/>
<path d="M100.158 9.4477L104 14.2441H101.216L97.8375 9.94061V14.2441H95.443V0.973407H97.8375V8.93583L101.03 4.76504H103.889L100.158 9.4477Z" fill="#252831"/>
<g clip-path="url(#clip0_106_378)">
<path d="M12.1955 3.56774C12.5632 3.19545 12.793 2.66805 12.793 2.09411C12.793 0.930714 11.8738 0 10.7247 0C10.0046 0 9.36113 0.372285 8.99342 0.946225C8.9015 1.0393 0.674124 11.3082 0.597519 11.4323C0.229815 11.8045 0 12.332 0 12.9059C0 14.0693 0.91926 15 2.06833 15C2.78842 15 3.4319 14.6277 3.79961 14.0538C3.89153 13.9607 12.1189 3.69183 12.1955 3.56774Z" fill="#009D65"/>
<path d="M16.9604 8.43846C17.3281 8.06618 17.5579 7.53877 17.5579 6.96483C17.5579 5.80144 16.6386 4.87073 15.4895 4.87073C14.7694 4.87073 14.126 5.24301 13.7583 5.81695C13.6663 5.91002 9.34582 11.3082 9.26921 11.4323C8.90151 11.8045 8.67169 12.3319 8.67169 12.9059C8.67169 14.0693 9.59095 15 10.74 15C11.4601 15 12.1036 14.6277 12.4713 14.0538C12.5632 13.9607 16.8837 8.56256 16.9604 8.43846Z" fill="#009D65"/>
<path d="M21.4647 2.09411C21.4647 3.2575 20.5455 4.18821 19.3964 4.18821C18.2473 4.18821 17.3281 3.2575 17.3281 2.09411C17.3281 0.930714 18.2473 0 19.3964 0C20.5455 0 21.4647 0.930714 21.4647 2.09411Z" fill="#009D65"/>
<path d="M4.13667 2.09411C4.13667 3.2575 3.21741 4.18821 2.06833 4.18821C0.91926 4.18821 0 3.24199 0 2.09411C0 0.930714 0.91926 0 2.06833 0C3.20209 0 4.13667 0.930714 4.13667 2.09411Z" fill="#009D65"/>
</g>
<defs>
<clipPath id="clip0_106_378">
<rect width="21.4647" height="15" fill="white"/>
</clipPath>
</defs>
</svg>
