<svg width="13" height="12" viewBox="0 0 13 12" fill="none" xmlns="http://www.w3.org/2000/svg">
<path d="M5.59862 0.876262C5.96179 0.120306 7.03821 0.120305 7.40138 0.876262L8.43538 3.02858C8.58115 3.33202 8.86982 3.54175 9.20346 3.58662L11.57 3.90491C12.4011 4.0167 12.7338 5.04043 12.127 5.61943L10.3996 7.26792C10.156 7.50033 10.0458 7.83968 10.1062 8.17086L10.5348 10.5199C10.6853 11.3449 9.81447 11.9776 9.07632 11.5795L6.9747 10.446C6.67841 10.2862 6.32159 10.2862 6.0253 10.446L3.92368 11.5795C3.18553 11.9776 2.31469 11.3449 2.46522 10.5199L2.8938 8.17086C2.95422 7.83968 2.84396 7.50033 2.60042 7.26792L0.872966 5.61943C0.266235 5.04043 0.598865 4.0167 1.43005 3.90491L3.79654 3.58662C4.13018 3.54175 4.41885 3.33202 4.56462 3.02858L5.59862 0.876262Z" fill="#FFC700"/>
</svg>
