<svg width="30" height="30" viewBox="0 0 30 30" fill="none" xmlns="http://www.w3.org/2000/svg">
<path opacity="0.4" d="M27.5 17.5V21.25C27.5 23.325 25.825 25 23.75 25H22.5C22.5 23.625 21.375 22.5 20 22.5C18.625 22.5 17.5 23.625 17.5 25H12.5C12.5 23.625 11.375 22.5 10 22.5C8.625 22.5 7.5 23.625 7.5 25H6.25C4.175 25 2.5 23.325 2.5 21.25V17.5H16.25C17.625 17.5 18.75 16.375 18.75 15V6.25003H21.05C21.95 6.25003 22.775 6.73754 23.225 7.51254L25.3625 11.25H23.75C23.0625 11.25 22.5 11.8125 22.5 12.5V16.25C22.5 16.9375 23.0625 17.5 23.75 17.5H27.5Z" fill="#009D65"/>
<path d="M10 27.5C11.3807 27.5 12.5 26.3807 12.5 25C12.5 23.6193 11.3807 22.5 10 22.5C8.61929 22.5 7.5 23.6193 7.5 25C7.5 26.3807 8.61929 27.5 10 27.5Z" fill="#009D65"/>
<path d="M20 27.5C21.3807 27.5 22.5 26.3807 22.5 25C22.5 23.6193 21.3807 22.5 20 22.5C18.6193 22.5 17.5 23.6193 17.5 25C17.5 26.3807 18.6193 27.5 20 27.5Z" fill="#009D65"/>
<path d="M27.5 15.6625V17.5H23.75C23.0625 17.5 22.5 16.9375 22.5 16.25V12.5C22.5 11.8125 23.0625 11.25 23.75 11.25H25.3625L27.175 14.425C27.3875 14.8 27.5 15.225 27.5 15.6625Z" fill="#009D65"/>
<path d="M17.5 2.50003H7.5C5.0625 2.50003 3.03752 4.25003 2.60002 6.56253H8.75C9.2625 6.56253 9.6875 6.98753 9.6875 7.50003C9.6875 8.01253 9.2625 8.43753 8.75 8.43753H2.5V10.3125H6.25C6.7625 10.3125 7.1875 10.7375 7.1875 11.25C7.1875 11.7625 6.7625 12.1875 6.25 12.1875H2.5V14.0625H3.75C4.2625 14.0625 4.6875 14.4875 4.6875 15C4.6875 15.5125 4.2625 15.9375 3.75 15.9375H2.5V17.5H16.25C17.625 17.5 18.75 16.375 18.75 15V3.75003C18.75 3.06253 18.1875 2.50003 17.5 2.50003Z" fill="#009D65"/>
<path d="M2.60002 6.56253H1.25C0.7375 6.56253 0.3125 6.98753 0.3125 7.50003C0.3125 8.01253 0.7375 8.43753 1.25 8.43753H2.5V7.50003C2.5 7.17503 2.53752 6.86253 2.60002 6.56253Z" fill="#009D65"/>
<path d="M1.25 10.3125C0.7375 10.3125 0.3125 10.7375 0.3125 11.25C0.3125 11.7625 0.7375 12.1875 1.25 12.1875H2.5V10.3125H1.25Z" fill="#009D65"/>
<path d="M1.25 14.0625C0.7375 14.0625 0.3125 14.4875 0.3125 15C0.3125 15.5125 0.7375 15.9375 1.25 15.9375H2.5V14.0625H1.25Z" fill="#009D65"/>
</svg>
