<svg width="30" height="30" viewBox="0 0 30 30" fill="none" xmlns="http://www.w3.org/2000/svg">
<path opacity="0.4" d="M26.625 13.55C27.1125 13.55 27.5 13.1625 27.5 12.675V11.5125C27.5 6.38751 25.9375 4.82501 20.8125 4.82501H9.1875C4.0625 4.82501 2.5 6.38751 2.5 11.5125V12.1C2.5 12.5875 2.8875 12.975 3.375 12.975C4.5 12.975 5.4125 13.8875 5.4125 15.0125C5.4125 16.1375 4.5 17.0375 3.375 17.0375C2.8875 17.0375 2.5 17.425 2.5 17.9125V18.5C2.5 23.625 4.0625 25.1875 9.1875 25.1875H20.8125C25.9375 25.1875 27.5 23.625 27.5 18.5C27.5 18.0125 27.1125 17.625 26.625 17.625C25.5 17.625 24.5875 16.7125 24.5875 15.5875C24.5875 14.4625 25.5 13.55 26.625 13.55Z" fill="#009D65"/>
<path d="M18.7508 19.85C18.0508 19.85 17.4883 19.2875 17.4883 18.6C17.4883 17.9125 18.0508 17.35 18.7383 17.35C19.4258 17.35 19.9883 17.9125 19.9883 18.6C19.9883 19.2875 19.4508 19.85 18.7508 19.85Z" fill="#009D65"/>
<path d="M11.2508 13.6C10.5508 13.6 9.98828 13.0375 9.98828 12.35C9.98828 11.6625 10.5508 11.1 11.2383 11.1C11.9258 11.1 12.4883 11.6625 12.4883 12.35C12.4883 13.0375 11.9508 13.6 11.2508 13.6Z" fill="#009D65"/>
<path d="M10.7859 20.5375C10.5484 20.5375 10.3109 20.45 10.1234 20.2625C9.76094 19.9 9.76094 19.3 10.1234 18.9375L18.5359 10.525C18.8984 10.1625 19.4984 10.1625 19.8609 10.525C20.2234 10.8875 20.2234 11.4875 19.8609 11.85L11.4484 20.2625C11.2734 20.45 11.0234 20.5375 10.7859 20.5375Z" fill="#009D65"/>
</svg>
